<svg xmlns="http://www.w3.org/2000/svg" viewBox="0 0 512 512">
  <defs>
    <linearGradient id="g" x1="0" y1="0" x2="1" y2="1">
      <stop offset="0" stop-color="#0b3c49"/>
      <stop offset="1" stop-color="#12a5b8"/>
    </linearGradient>
  </defs>
  <rect width="512" height="512" rx="112" fill="url(#g)"/>
  <g transform="translate(256 268) scale(15.5) translate(-12 -12)">
    <path fill="#8ee6f2" opacity=".5" d="M3 17c2 0 2-1.4 4-1.4S9 17 11 17s2-1.4 4-1.4S17 17 19 17s2-1.4 4-1.4V13c-2 0-2 1.4-4 1.4S17 13 15 13s-2 1.4-4 1.4S9 13 7 13s-2 1.4-4 1.4z"/>
    <path fill="#ff6b5a" d="M12 2c.6 2.2.2 3.8-.8 5.2-.7 1-1.6 1.9-2.2 3-.9 1.7-.5 3.6 1 4.6-.3-1.5.3-2.7 1.3-3.8.9-1 2-1.9 2.6-3.2.8-1.7.5-3.9-1.9-5.8z"/>
    <path fill="#f2a65a" d="M7.5 8.8c-.9 1.4-1 2.7-.6 3.9.3.9.9 1.7.9 2.6 0 .5-.1 1-.4 1.4 1.4-.5 2.1-1.7 2-3.1-.1-1-.6-1.9-.8-2.9-.2-.7-.2-1.4-.1-1.9z"/>
    <path fill="#f2a65a" d="M16.5 8.8c.9 1.4 1 2.7.6 3.9-.3.9-.9 1.7-.9 2.6 0 .5.1 1 .4 1.4-1.4-.5-2.1-1.7-2-3.1.1-1 .6-1.9.8-2.9.2-.7.2-1.4.1-1.9z"/>
  </g>
</svg>
